<?xml version="1.0" encoding="UTF-8" standalone="no"?>
<!-- Generator: Adobe Illustrator 22.1.0, SVG Export Plug-In . SVG Version: 6.00 Build 0)  -->

<svg
   xmlns:dc="http://purl.org/dc/elements/1.1/"
   xmlns:cc="http://creativecommons.org/ns#"
   xmlns:rdf="http://www.w3.org/1999/02/22-rdf-syntax-ns#"
   xmlns:svg="http://www.w3.org/2000/svg"
   xmlns="http://www.w3.org/2000/svg"
   xmlns:sodipodi="http://sodipodi.sourceforge.net/DTD/sodipodi-0.dtd"
   xmlns:inkscape="http://www.inkscape.org/namespaces/inkscape"
   version="1.1"
   id="Capa_1"
   x="0px"
   y="0px"
   viewBox="0 0 682 202"
   style="enable-background:new 0 0 682 202;"
   xml:space="preserve"
   sodipodi:docname="logoRedpointBlogGrey.svg"
   inkscape:version="0.92.3 (2405546, 2018-03-11)"><metadata
   id="metadata97"><rdf:RDF><cc:Work
       rdf:about=""><dc:format>image/svg+xml</dc:format><dc:type
         rdf:resource="http://purl.org/dc/dcmitype/StillImage" /><dc:title></dc:title></cc:Work></rdf:RDF></metadata><defs
   id="defs95" /><sodipodi:namedview
   pagecolor="#ffffff"
   bordercolor="#666666"
   borderopacity="1"
   objecttolerance="10"
   gridtolerance="10"
   guidetolerance="10"
   inkscape:pageopacity="0"
   inkscape:pageshadow="2"
   inkscape:window-width="1920"
   inkscape:window-height="1001"
   id="namedview93"
   showgrid="false"
   inkscape:zoom="1.2199413"
   inkscape:cx="346.5945"
   inkscape:cy="118.82034"
   inkscape:window-x="-9"
   inkscape:window-y="-9"
   inkscape:window-maximized="1"
   inkscape:current-layer="Capa_1" />
<style
   type="text/css"
   id="style2">
	.st0{fill:#FFFFFF;}
	.st1{fill-rule:evenodd;clip-rule:evenodd;fill:#FFFFFF;}
</style>
<g
   id="g90"
   style="fill:#8d8d8d;fill-opacity:1">
	<g
   id="g48"
   style="fill:#8d8d8d;fill-opacity:1">
		<path
   class="st0"
   d="M198.9,168.5l-2.5,6.1h-2.5l8.1-19.5h1.9l8,19.5h-2.7l-2.4-6.1H198.9z M203.7,166.6c1.2,0,1.5,0,2.5,0.1    c-0.5-1-0.5-1.1-1-2.3l-0.7-1.7c-0.8-2-1-2.4-1.6-4.2h-0.1c-0.6,1.8-0.8,2.2-1.5,4.2l-0.7,1.7c-0.5,1.1-0.6,1.3-1,2.3    c1.1-0.1,1.3-0.1,2.5-0.1H203.7z"
   id="path4"
   style="fill:#8d8d8d;fill-opacity:1" />
		<path
   class="st0"
   d="M216.8,164.7c1.1-2.2,2.3-3.3,3.5-3.3c0.6,0,1,0.1,2,0.5l-0.6,2c-0.9-0.3-1.2-0.3-1.6-0.3    c-1.1,0-2.1,0.8-3.3,2.7v8.4h-2.4v-7.7c0-3.2-0.1-4-0.9-4.7l2-0.8c0.7,0.6,0.9,1.4,1,3.3H216.8z"
   id="path6"
   style="fill:#8d8d8d;fill-opacity:1" />
		<path
   class="st0"
   d="M235.6,182.1h-2.4v-4.7c0-1.9,0-2.4,0.1-4.1l-0.1,0c-1.2,1.1-2.2,1.5-3.6,1.5c-3.4,0-5.8-2.6-5.8-6.3    c0-4.2,2.8-7.1,6.8-7.1c1.6,0,2.7,0.2,5,0.9V182.1z M233.2,165.8c0-0.9,0-1.1,0.1-1.9c-0.9-0.4-1.7-0.6-2.6-0.6    c-2.6,0-4.3,1.9-4.3,4.8c0,2.9,1.6,4.8,4,4.8c1.1,0,1.9-0.3,3-1.3c-0.1-0.8-0.1-0.9-0.1-1.8V165.8z"
   id="path8"
   style="fill:#8d8d8d;fill-opacity:1" />
		<path
   class="st0"
   d="M250.4,170.4c0,1.5,0,1.5,0.1,1.9c0.1,0.5,0.6,0.8,1.2,0.8c0.2,0,0.5,0,0.7-0.1l-0.4,1.7    c-0.5,0.1-0.7,0.1-1.1,0.1c-1.5,0-2.4-0.6-2.6-2l-0.1,0c-1.4,1.5-2.6,2.1-4.3,2.1c-1.7,0-3.1-0.8-3.8-1.9    c-0.4-0.8-0.6-1.7-0.6-3.3v-8h2.4v7.9c0,2.4,0.8,3.4,2.7,3.4c1.3,0,2.3-0.5,3.3-1.7v-9.6h2.4V170.4z"
   id="path10"
   style="fill:#8d8d8d;fill-opacity:1" />
		<path
   class="st0"
   d="M257.5,157c0,0.9-0.6,1.6-1.5,1.6c-0.8,0-1.5-0.7-1.5-1.6c0-0.9,0.6-1.6,1.5-1.6    C256.8,155.4,257.5,156.1,257.5,157z M257.2,174.6h-2.4v-12.9h2.4V174.6z"
   id="path12"
   style="fill:#8d8d8d;fill-opacity:1" />
		<path
   class="st0"
   d="M268.2,163.5h-2.9c-0.3,0-0.4,0-0.7-0.1c0.1,0.3,0.1,0.3,0.1,0.7v6.2c0,2,0.4,2.5,1.8,2.5    c0.7,0,1.3-0.1,2.3-0.5l0.3,1.6c-1.1,0.6-2.1,0.8-3.4,0.8c-1.3,0-2.5-0.6-3-1.3c-0.4-0.7-0.5-1.4-0.5-3.5v-5.8    c0-0.3,0-0.4,0.1-0.7c-0.3,0.1-0.3,0.1-0.7,0.1h-2.2v-1.4c3.3-0.2,3.3-0.2,3.8-4h1.5l-0.2,3.1c0,0.3,0,0.4-0.1,0.7    c0.3-0.1,0.3-0.1,0.7-0.1h2.9V163.5z"
   id="path14"
   style="fill:#8d8d8d;fill-opacity:1" />
		<path
   class="st0"
   d="M273,168c-0.3,0-0.3,0-0.5-0.1c0,3.1,1.6,4.9,4.3,4.9c1.4,0,2.6-0.5,3.5-1.4l1.2,1.2    c-1.4,1.5-3.1,2.3-5.2,2.3c-3.7,0-6.2-2.7-6.2-6.7c0-4,2.6-6.9,6.2-6.9c3.1,0,5.1,2.2,5.1,5.3l-1.1,1.3H273z M278.5,166.4    c0.5,0,0.6,0,1,0.1c-0.2-2.1-1.4-3.3-3.3-3.3c-1.9,0-3.2,1.2-3.6,3.3c0.7-0.1,0.8-0.1,1.6-0.1H278.5z"
   id="path16"
   style="fill:#8d8d8d;fill-opacity:1" />
		<path
   class="st0"
   d="M293.1,164.5c-1.2-0.8-1.9-1-2.9-1c-2.3,0-4,1.9-4,4.4c0,3,1.7,4.9,4.3,4.9c1,0,1.8-0.2,3-0.9l0.9,1.6    c-1.4,1-2.7,1.5-4.4,1.5c-3.7,0-6.3-2.7-6.3-6.6c0-4,2.8-6.9,6.6-6.9c1.5,0,2.8,0.4,4,1.3L293.1,164.5z"
   id="path18"
   style="fill:#8d8d8d;fill-opacity:1" />
		<path
   class="st0"
   d="M303.6,163.5h-2.9c-0.3,0-0.4,0-0.7-0.1c0.1,0.3,0.1,0.3,0.1,0.7v6.2c0,2,0.4,2.5,1.8,2.5    c0.7,0,1.3-0.1,2.3-0.5l0.3,1.6c-1.1,0.6-2.1,0.8-3.4,0.8c-1.3,0-2.5-0.6-3-1.3c-0.4-0.7-0.5-1.4-0.5-3.5v-5.8    c0-0.3,0-0.4,0.1-0.7c-0.3,0.1-0.3,0.1-0.7,0.1H295v-1.4c3.3-0.2,3.3-0.2,3.8-4h1.5l-0.2,3.1c0,0.3,0,0.4-0.1,0.7    c0.3-0.1,0.3-0.1,0.7-0.1h2.9V163.5z"
   id="path20"
   style="fill:#8d8d8d;fill-opacity:1" />
		<path
   class="st0"
   d="M317.4,170.4c0,1.5,0,1.5,0.1,1.9c0.1,0.5,0.6,0.8,1.2,0.8c0.2,0,0.5,0,0.7-0.1l-0.4,1.7    c-0.5,0.1-0.7,0.1-1.1,0.1c-1.5,0-2.4-0.6-2.6-2l-0.1,0c-1.4,1.5-2.6,2.1-4.3,2.1c-1.7,0-3.1-0.8-3.8-1.9    c-0.4-0.8-0.6-1.7-0.6-3.3v-8h2.4v7.9c0,2.4,0.8,3.4,2.7,3.4c1.3,0,2.3-0.5,3.3-1.7v-9.6h2.4V170.4z"
   id="path22"
   style="fill:#8d8d8d;fill-opacity:1" />
		<path
   class="st0"
   d="M324.2,164.7c1.1-2.2,2.3-3.3,3.5-3.3c0.6,0,1,0.1,2,0.5l-0.6,2c-0.9-0.3-1.2-0.3-1.6-0.3    c-1.1,0-2.1,0.8-3.3,2.7v8.4h-2.4v-7.7c0-3.2-0.1-4-0.9-4.7l2-0.8c0.7,0.6,0.9,1.4,1,3.3H324.2z"
   id="path24"
   style="fill:#8d8d8d;fill-opacity:1" />
		<path
   class="st0"
   d="M331.3,162.8c1.8-1,3.1-1.4,4.6-1.4c1.4,0,2.6,0.5,3.3,1.2c0.6,0.7,0.9,1.7,0.9,3.5v4.2c0,1.5,0,1.5,0.1,1.9    c0.1,0.5,0.6,0.8,1.1,0.8c0.2,0,0.5-0.1,0.8-0.1l-0.3,1.7c-0.5,0.1-0.7,0.1-1.2,0.1c-1.4,0-2.1-0.5-2.5-1.7    c-1.5,1.3-2.5,1.7-3.9,1.7c-2.2,0-3.7-1.5-3.7-3.7c0-2.9,2.2-4.3,7.4-4.7c-0.1-0.2-0.1-0.3-0.1-0.5v-0.2c0-1.6-0.7-2.4-2.2-2.4    c-1.2,0-2.2,0.3-4.2,1.5V162.8z M337.8,169.2c0-0.6,0-0.7,0.1-1.2c-3.6,0.5-5,1.4-5,3.2c0,1.2,0.8,1.9,2.2,1.9    c0.9,0,1.4-0.2,2.7-1V169.2z"
   id="path26"
   style="fill:#8d8d8d;fill-opacity:1" />
		<path
   class="st0"
   d="M361.8,154.2v16.2c0,1.5,0,1.5,0.1,1.9c0.1,0.5,0.6,0.8,1.1,0.8c0.2,0,0.5,0,0.8-0.1l-0.3,1.7    c-0.5,0.1-0.7,0.1-1.1,0.1c-1.4,0-2.2-0.5-2.5-1.7c-1.3,1.2-2.4,1.7-4,1.7c-3.4,0-5.8-2.7-5.8-6.5c0-4,2.7-6.9,6.3-6.9    c1.1,0,1.9,0.3,3.2,1c-0.1-1.3-0.1-1.7-0.1-3v-5.4H361.8z M359.4,166.6c0-0.8,0-1,0.1-1.8c-1-1-1.9-1.5-3.1-1.5    c-2.3,0-3.9,2-3.9,4.8c0,2.8,1.6,4.7,4,4.7c1.2,0,1.9-0.3,3.1-1.3c-0.1-0.8-0.1-0.9-0.1-1.8V166.6z"
   id="path28"
   style="fill:#8d8d8d;fill-opacity:1" />
		<path
   class="st0"
   d="M368.2,168c-0.3,0-0.3,0-0.5-0.1c0,3.1,1.6,4.9,4.3,4.9c1.4,0,2.6-0.5,3.5-1.4l1.2,1.2    c-1.4,1.5-3.1,2.3-5.2,2.3c-3.7,0-6.2-2.7-6.2-6.7c0-4,2.6-6.9,6.2-6.9c3.1,0,5.1,2.2,5.1,5.3l-1.1,1.3H368.2z M373.6,166.4    c0.5,0,0.6,0,1,0.1c-0.2-2.1-1.4-3.3-3.3-3.3c-1.9,0-3.2,1.2-3.6,3.3c0.7-0.1,0.8-0.1,1.6-0.1H373.6z"
   id="path30"
   style="fill:#8d8d8d;fill-opacity:1" />
		<path
   class="st0"
   d="M388.4,163.9c1.1-1.7,2.6-2.5,4.4-2.5c2.6,0,4.3,1.9,4.3,4.6v8.7h-2.4v-7.7c0-2.5-0.8-3.5-2.6-3.5    c-1.4,0-2.4,0.6-3.6,2v9.2h-2.4v-7.7c0-3.2-0.1-4-0.9-4.7l2-0.8C387.9,161.9,388.2,162.6,388.4,163.9L388.4,163.9z"
   id="path32"
   style="fill:#8d8d8d;fill-opacity:1" />
		<path
   class="st0"
   d="M403.2,168c-0.3,0-0.3,0-0.5-0.1c0,3.1,1.6,4.9,4.3,4.9c1.4,0,2.6-0.5,3.5-1.4l1.2,1.2    c-1.4,1.5-3.1,2.3-5.2,2.3c-3.7,0-6.2-2.7-6.2-6.7c0-4,2.6-6.9,6.2-6.9c3.1,0,5.1,2.2,5.1,5.3l-1.1,1.3H403.2z M408.6,166.4    c0.5,0,0.6,0,1,0.1c-0.2-2.1-1.4-3.3-3.3-3.3c-1.9,0-3.2,1.2-3.6,3.3c0.7-0.1,0.8-0.1,1.6-0.1H408.6z"
   id="path34"
   style="fill:#8d8d8d;fill-opacity:1" />
		<path
   class="st0"
   d="M417.5,170.9c-0.5,0.5-0.7,0.8-0.7,1.3c0,0.6,0.5,0.9,1.9,1.2l3.9,0.8c1.9,0.4,3.2,1.8,3.2,3.6    c0,2.9-2.6,4.9-6.4,4.9c-3.5,0-5.9-1.7-5.9-4.2c0-1.7,1.1-2.8,3.4-3.7v-0.1c-1.4-0.5-1.9-1-1.9-2c0-0.9,0.5-1.5,1.7-2.3l0.1-0.1    l0-0.1c-1.7-0.8-2.5-2.2-2.5-4.2c0-2.8,2.1-4.8,5.3-4.8c0.8,0,1.4,0.1,2.3,0.5h4.6v1.6l-1.6-0.2c-0.8-0.1-1-0.1-1.7-0.3l-0.1,0.1    c1.3,1.2,1.7,1.9,1.7,3.4c0,2.8-2.1,4.7-5.1,4.7C418.7,171.1,418.2,171,417.5,170.9L417.5,170.9z M418,175.3    c-1.5,0.8-2.3,1.7-2.3,2.8c0,1.6,1.7,2.8,4,2.8c2.3,0,3.8-1.1,3.8-2.7c0-1.4-0.8-2-3.1-2.5L418,175.3z M416.5,166.1    c0,2.1,1.1,3.4,2.9,3.4c1.8,0,2.9-1.2,2.9-3.1c0-2.1-1.2-3.5-3-3.5C417.6,162.8,416.5,164.1,416.5,166.1z"
   id="path36"
   style="fill:#8d8d8d;fill-opacity:1" />
		<path
   class="st0"
   d="M441.2,168.2c0,4-2.7,6.7-6.5,6.7c-3.9,0-6.6-2.8-6.6-6.7c0-4,2.8-6.9,6.7-6.9    C438.4,161.4,441.2,164.3,441.2,168.2z M430.5,167.8c0,3,1.9,5.2,4.3,5.2c2.3,0,3.8-1.8,3.8-4.5c0-3-1.8-5.2-4.2-5.2    C432.1,163.4,430.5,165.2,430.5,167.8z"
   id="path38"
   style="fill:#8d8d8d;fill-opacity:1" />
		<path
   class="st0"
   d="M452.9,164.5c-1.2-0.8-1.9-1-2.9-1c-2.3,0-4,1.9-4,4.4c0,3,1.7,4.9,4.3,4.9c1,0,1.8-0.2,3-0.9l0.9,1.6    c-1.4,1-2.7,1.5-4.4,1.5c-3.7,0-6.3-2.7-6.3-6.6c0-4,2.8-6.9,6.6-6.9c1.5,0,2.8,0.4,4,1.3L452.9,164.5z"
   id="path40"
   style="fill:#8d8d8d;fill-opacity:1" />
		<path
   class="st0"
   d="M459.3,157c0,0.9-0.6,1.6-1.5,1.6c-0.8,0-1.5-0.7-1.5-1.6c0-0.9,0.6-1.6,1.5-1.6    C458.6,155.4,459.3,156.1,459.3,157z M459,174.6h-2.4v-12.9h2.4V174.6z"
   id="path42"
   style="fill:#8d8d8d;fill-opacity:1" />
		<path
   class="st0"
   d="M475.4,168.2c0,4-2.7,6.7-6.5,6.7c-3.9,0-6.6-2.8-6.6-6.7c0-4,2.8-6.9,6.7-6.9    C472.7,161.4,475.4,164.3,475.4,168.2z M464.8,167.8c0,3,1.9,5.2,4.3,5.2c2.3,0,3.8-1.8,3.8-4.5c0-3-1.8-5.2-4.2-5.2    C466.4,163.4,464.8,165.2,464.8,167.8z"
   id="path44"
   style="fill:#8d8d8d;fill-opacity:1" />
		<path
   class="st0"
   d="M484.9,164.4c-1.3-0.9-1.9-1.1-2.8-1.1c-1.2,0-2,0.7-2,1.6c0,0.7,0.5,1.2,1.8,1.8l1.9,0.8    c1.6,0.7,2.4,1.9,2.4,3.4c0,2.3-1.9,4-4.5,4c-1.8,0-3.3-0.6-4.5-1.9l1.2-1.6c1.2,1.1,2.2,1.7,3.4,1.7c1.2,0,2.1-0.8,2.1-1.8    c0-0.8-0.4-1.2-1.8-1.8c-3.3-1.4-4.2-2.2-4.2-4.1c0-2.2,1.8-3.9,4.1-3.9c1.3,0,2.5,0.4,3.7,1.3L484.9,164.4z"
   id="path46"
   style="fill:#8d8d8d;fill-opacity:1" />
	</g>
	<g
   id="g76"
   style="fill:#8d8d8d;fill-opacity:1">
		<path
   class="st1"
   d="M347.1,57.8c0,9.4-7.6,17-17,17c-9.4,0-17-7.6-17-17c0-9.4,7.6-17,17-17C339.5,40.8,347.1,48.4,347.1,57.8z"
   id="path50"
   style="fill:#8d8d8d;fill-opacity:1" />
		<g
   id="g64"
   style="fill:#8d8d8d;fill-opacity:1">
			<path
   class="st1"
   d="M226.7,144.9c-5.9,0-11.5,0-17,0c-0.1-0.1-0.1-0.1-0.1-0.1c0,0-0.1-0.1-0.1-0.1c0-0.3-0.1-0.6-0.1-0.8     c0-25.9,0-51.8,0-77.8c0-0.1,0.1-0.2,0.2-0.3c0.3,0,0.6-0.1,0.9-0.1c9.4,0,18.8,0,28.1,0.1c6,0.1,11.5,1.8,16.3,5.5     c4.8,3.7,7.6,8.7,9,14.6c0.6,2.8,0.9,5.7,0.9,8.6c0,0.2,0,0.5,0,1c0.4-0.5,0.6-0.8,0.8-1.2c4.6-6.9,11-10.8,19.2-11.8     c4.6-0.6,9.2-0.3,13.7,0.8c7.9,2,13.2,6.9,16.3,14.4c1.3,3.3,2.1,6.8,2.4,10.3c0.6,5.5,0.5,11-0.8,16.4     c-1.1,4.9-3.2,9.4-6.6,13.1c-3.7,4.1-8.4,6.7-13.7,7.9c-5.1,1.2-10.2,1.2-15.3,0.1c-8.6-1.9-14.5-6.9-17.8-15     c-2.5-6-3-12.2-2.7-18.6c0-0.8,0.1-1.5,0.1-2.3c0-0.1-0.1-0.1-0.2-0.3c-0.2,0.2-0.3,0.3-0.4,0.5c-4.5,6.3-10.7,9.8-18,11.5     c-3.9,0.9-7.9,1.2-11.9,1.1c-1,0-2.1,0-3.3,0C226.7,130,226.7,137.4,226.7,144.9z M277.3,115.4c0.1,1.2,0.1,2.5,0.3,3.9     c0.2,2.2,0.7,4.4,1.7,6.4c1.3,2.8,3.4,4.6,6.4,5.3c1.8,0.4,3.5,0.5,5.3,0.3c4.2-0.5,6.9-2.7,8.2-6.7c0.3-0.9,0.6-1.9,0.7-2.9     c0.8-4.4,0.7-8.8,0.2-13.2c-0.3-2.3-0.8-4.5-2-6.6c-1.4-2.5-3.6-4.1-6.4-4.6c-6.5-1.1-11.5,1.2-13.4,8.3     C277.5,108.7,277.3,112,277.3,115.4z M226.7,107.8c0.9,0,1.7,0,2.6,0c2.7,0,5.4,0.1,8-0.5c5.2-1.2,8.4-4.4,9.4-9.7     c0.5-2.9,0.4-5.8-0.2-8.7c-1.2-5.1-4.3-7.9-9.6-8.2c-3.2-0.2-6.4-0.1-9.6-0.2c-0.2,0-0.4,0.1-0.6,0.1     C226.7,89.7,226.7,98.7,226.7,107.8z"
   id="path52"
   style="fill:#8d8d8d;fill-opacity:1" />
			<path
   class="st1"
   d="M396.8,144.9c-5.7,0-11.2,0-16.8,0c0-0.6,0-1.1,0-1.7c0-11.6,0-23.2,0-34.8c0-1.8-0.1-3.6-0.4-5.3     c-0.5-3.1-1.8-4.3-4.9-4.7c-2.4-0.3-4.7,0-7,0.5c-2.5,0.6-5,1.4-7.3,2.7c0,14.4,0,28.8,0,43.1c-1,0.3-15.1,0.4-16.9,0.1     c0-20.3,0-40.6,0-60.9c1.1-0.3,15.4-0.4,16.9,0c0,1.8,0,3.7,0,5.8c0.6-0.4,0.9-0.6,1.3-0.9c3.8-2.8,7.8-5.1,12.4-6.1     c4.4-1,8.8-0.6,13.1,0.8c3.8,1.3,6.4,3.9,7.8,7.7c1,2.5,1.4,5.2,1.6,7.9c0.2,2.9,0.3,5.7,0.3,8.6c0,11.8,0,23.7,0,35.5     C396.8,143.7,396.8,144.2,396.8,144.9z"
   id="path54"
   style="fill:#8d8d8d;fill-opacity:1" />
			<path
   class="st1"
   d="M406,97.5c-2.7,0-5.3,0-7.9,0c0-4.7,0-9.2,0-13.8c2.6,0,5.2,0,7.9,0c0-4.2,0-8.3,0-12.3     c1.2-0.3,14-0.4,16.8-0.2c0.2,1.3,0.1,2.7,0.1,4c0,1.4,0,2.7,0,4.1c0,1.4,0,2.7,0,4.3c0.6,0,1.1,0.1,1.6,0.1c4.6,0,9.2,0,13.9,0     c0.5,0,1,0,1.6,0c0,4.7,0,9.2,0,13.8c-5.7,0-11.2,0-17,0c0,0.6,0,1.1,0,1.5c0,8.9,0,17.7,0,26.6c0,0.6,0,1.1,0.1,1.7     c0.2,2,1.1,3,3.2,3.1c2.1,0.1,4.2,0.1,6.3-0.1c2.7-0.2,5.4-0.6,8.3-0.9c0.7,4.8,1.1,9.7,1.7,14.7c-1.3,0.3-2.6,0.7-3.8,1     c-6.4,1.4-12.8,1.5-19.2,0.7c-6.9-0.9-10.9-4.8-12.5-11.7c-0.7-2.9-0.9-5.9-0.9-8.8c0-8.6,0-17.2,0-25.9     C406,98.8,406,98.3,406,97.5z"
   id="path56"
   style="fill:#8d8d8d;fill-opacity:1" />
			<path
   class="st1"
   d="M320.8,83.8c5.5,0,11,0,16.4,0c0.3,1.1,0.4,59,0.1,61.1c-5.5,0-11,0-16.4,0     C320.6,143.9,320.5,85.7,320.8,83.8z"
   id="path58"
   style="fill:#8d8d8d;fill-opacity:1" />
			
			
		</g>
		<g
   id="g74"
   style="fill:#8d8d8d;fill-opacity:1">
			<path
   class="st0"
   d="M100.5,1C45.4,1,0.6,45.8,0.6,101c0,55.2,44.7,100,99.9,100c55.2,0,99.9-44.8,99.9-100     C200.5,45.8,155.7,1,100.5,1z M167.4,140.9v-4c0,0-8.7,10.1-23.9,1.4c-9.9-5.6-10.8-20.9-10.8-20.9h-31.9c0,0-0.9,3.6,2.1,7.1     c5.6,6.7,27.5,1.1,27.5,1.1l2.4,13.7c0,0-10.2,2.9-22.1,2.9c-16.3,0-21.9-10.2-21.9-10.2L86,142.2c0,0-13.5-1-20.8-9.4     c-5.9-6.8-14.1-17.8-14.1-17.8h-9.8v25.9H25.9V65.5h30.6c0,0,18.1-0.3,21.3,18.7c3,17.4-10.1,26.1-10.1,26.1s5.9,8.8,9.4,11.5     c3.1,2.3,9.1,5.2,9.1,5.2s-6.8-20.3,3-35.5c6.3-9.9,15.3-9.9,21.2-10.3c20.3-1.3,23,18.6,23,18.6s2.5-9,13-15.6     c8.1-5.2,20.8-2.3,20.8-2.3V59.6h16.5v81.3H167.4z"
   id="path66"
   style="fill:#8d8d8d;fill-opacity:1" />
			<path
   class="st0"
   d="M51.7,79.7h-9.2v22.4h7.1c0,0,12.1,0,12.1-11.2C61.6,78.8,48.5,79.9,51.7,79.7z"
   id="path68"
   style="fill:#8d8d8d;fill-opacity:1" />
			<path
   class="st0"
   d="M109.6,93.8c-9.3,0.4-8.2,11.8-8.2,11.8h16.5C117.9,105.6,118.9,93.4,109.6,93.8z"
   id="path70"
   style="fill:#8d8d8d;fill-opacity:1" />
			<path
   class="st0"
   d="M148.2,110.5c0.4,23,19.2,14.4,19.2,14.4V96.1C167.4,96.1,147.8,87.5,148.2,110.5z"
   id="path72"
   style="fill:#8d8d8d;fill-opacity:1" />
		</g>
	</g>
	<g
   id="g88"
   style="fill:#8d8d8d;fill-opacity:1">
		<path
   class="st0"
   d="M461.7,124.1c-5.7,0-9.9,4.7-9.9,11.1c-0.1,3.1,1,6,3,8c1.8,1.9,4.2,2.9,6.8,2.9c5.8,0,10.1-4.6,10.1-10.9    C471.6,128.7,467.5,124.1,461.7,124.1z"
   id="path78"
   style="fill:#8d8d8d;fill-opacity:1" />
		<path
   class="st0"
   d="M522.3,97c5.5-4.3,8.8-10.7,8.8-17.7c0-7.2-2.6-13.1-7.6-17c-5.2-4.7-12.3-6.7-22.8-6.7    c-6.6,0-13.7,0.7-18.6,1.8l-2.6,0.6v86.3l2.9,0.4c4.6,0.7,9.9,1,15.7,1c13.3,0,22.6-2.8,28.3-8.6c5-4.9,7.5-11.2,7.5-18.7    C534,107.6,528.7,100.8,522.3,97z M501,130.6c-2,0-3.5,0-4.8-0.1v-25h4.7c6.1,0,16.3,1.6,16.3,12.6    C517.1,128.4,508.3,130.6,501,130.6z M496.1,90.9V70.5c1.5-0.2,3.2-0.2,5.3-0.2c11.9,0,13.2,5.7,13.2,10c0,6.4-5.1,10.5-13,10.5    H496.1z"
   id="path80"
   style="fill:#8d8d8d;fill-opacity:1" />
		<rect
   x="540.1"
   y="51.7"
   class="st0"
   width="16.4"
   height="93.1"
   id="rect82"
   style="fill:#8d8d8d;fill-opacity:1" />
		<path
   class="st0"
   d="M592.8,78c-17.9,0-30.3,14.1-30.3,34.3c0,20,12,33.9,29.1,33.9c14.7,0,30.5-10.7,30.5-34.1    C622.1,91.7,610.3,78,592.8,78z M592.2,131.4c-9.1,0-13.1-9.6-13.1-19.2c0-2,0.4-19.7,13.1-19.7c12.9,0,13.2,17.5,13.2,19.5    C605.4,121.4,601.3,131.4,592.2,131.4z"
   id="path84"
   style="fill:#8d8d8d;fill-opacity:1" />
		<path
   class="st0"
   d="M666.1,79.3l-0.2,3.4c-3.2-2.6-7.8-4.8-14.2-4.8c-13.8,0-27.7,11.8-27.7,34.5c0,18.6,11.1,32.1,26.4,32.1    c5.3,0,10.2-1.6,14.1-4.6c-0.6,10.1-5.3,15.3-14.1,15.3c-6.8,0-11.8-2.6-14.2-4.2l-3.7-2.5l-4.5,14.7l2,1.4    c4.8,3.4,12.5,5.5,20.1,5.5c9,0,16.9-2.9,22-8c6-5.9,8.7-14.9,8.7-29.3V98.7c0-7.1,0.2-11.8,0.4-15.9l0.2-3.5H666.1z M640.5,111.9    c0-11.3,5.1-18.9,12.8-18.9c7.5,0,10.1,6.8,10.7,9c0.3,0.9,0.4,2.1,0.4,3.9v10.6c0,1.7-0.2,3.4-0.6,4.7c-1.7,5.3-5.8,8.7-10.5,8.7    C643.8,129.8,640.5,120.2,640.5,111.9z"
   id="path86"
   style="fill:#8d8d8d;fill-opacity:1" />
	</g>
</g>
</svg>