<?xml version="1.0" encoding="UTF-8" standalone="no"?>
<!-- Created with Inkscape (http://www.inkscape.org/) -->

<svg
   xmlns:dc="http://purl.org/dc/elements/1.1/"
   xmlns:cc="http://creativecommons.org/ns#"
   xmlns:rdf="http://www.w3.org/1999/02/22-rdf-syntax-ns#"
   xmlns:svg="http://www.w3.org/2000/svg"
   xmlns="http://www.w3.org/2000/svg"
   xmlns:sodipodi="http://sodipodi.sourceforge.net/DTD/sodipodi-0.dtd"
   xmlns:inkscape="http://www.inkscape.org/namespaces/inkscape"
   width="210mm"
   height="297mm"
   viewBox="0 0 210 297"
   version="1.1"
   id="svg8"
   inkscape:version="0.92.3 (2405546, 2018-03-11)"
   sodipodi:docname="red-point-logo.svg">
  <defs
     id="defs2" />
  <sodipodi:namedview
     id="base"
     pagecolor="#ffffff"
     bordercolor="#666666"
     borderopacity="1.0"
     inkscape:pageopacity="0.0"
     inkscape:pageshadow="2"
     inkscape:zoom="0.35"
     inkscape:cx="-94.285714"
     inkscape:cy="560"
     inkscape:document-units="mm"
     inkscape:current-layer="XMLID_1_"
     showgrid="false"
     inkscape:window-width="1708"
     inkscape:window-height="881"
     inkscape:window-x="2391"
     inkscape:window-y="140"
     inkscape:window-maximized="1" />
  <metadata
     id="metadata5">
    <rdf:RDF>
      <cc:Work
         rdf:about="">
        <dc:format>image/svg+xml</dc:format>
        <dc:type
           rdf:resource="http://purl.org/dc/dcmitype/StillImage" />
        <dc:title></dc:title>
      </cc:Work>
    </rdf:RDF>
  </metadata>
  <g
     inkscape:label="Capa 1"
     inkscape:groupmode="layer"
     id="layer1">
    <g
       id="XMLID_16_"
       transform="matrix(0.26458333,0,0,0.26458333,58.743173,114.98556)">
	<g
   id="XMLID_1_">
		<path
   d="m 80.9,69.1 c -4.9,0 -6.9,5.1 -7.6,10 L 87.7,79 c 0,0 0.2,-9.9 -6.8,-9.9 z"
   class="st0"
   id="XMLID_2_"
   inkscape:connector-curvature="0"
   style="fill:#ffffff;fill-opacity:1" />

		<path
   d="M 40.8,59.1 H 28.3 v 15.8 h 13 c 1.6,0 3.5,-3.4 3.5,-7.7 0.1,-3.9 -1.7,-8.1 -4,-8.1 z"
   class="st0"
   id="XMLID_3_"
   inkscape:connector-curvature="0"
   style="fill:#ffffff;fill-opacity:1" />

		<path
   d="m 108.9,82.9 c 0,9.2 6.8,12.5 10.6,12.5 3.8,0 5.3,-2.9 5.3,-2.9 V 72.2 c 0,0 -2.6,-2.5 -6.8,-2.5 -4.2,0 -9.1,4 -9.1,13.2 z"
   class="st0"
   id="XMLID_4_"
   inkscape:connector-curvature="0"
   style="fill:#ffffff;fill-opacity:1" />

		<path
   d="M 76.5,0 C 34.3,0 0,34.3 0,76.5 0,118.7 34.3,153 76.5,153 118.7,153 153,118.7 153,76.5 153,34.3 118.8,0 76.5,0 Z m 48.2,104.9 v -4.3 c 0,0 -3.3,4.3 -10.3,4.3 -4.9,0 -14.6,-4.3 -16.2,-18.7 L 73.1,87 c 0.5,4.3 2.5,8.4 7.8,8.6 6.3,0.2 14.9,-1.5 14.9,-1.5 l 0.9,9.1 c 0,0 -7.1,2.4 -14.9,2.4 -5.4,0 -12.9,-1.4 -16.9,-8 l -4.3,9.2 C 51.4,102.5 43.6,95.1 38.2,86 h -9.8 v 19 H 17.2 V 48 h 11.1 12.5 c 9.8,0 15.1,9.9 15.1,19.1 0,6 -2.2,12.3 -6.5,15.8 3.9,5.6 9,10.1 14.7,13.1 C 62.8,93.3 62,89.9 62,85.5 c 0,-17 6.6,-25.3 18.3,-25.3 9.1,0 15.9,3.8 18.4,15 3.2,-12.2 15.1,-15 18.1,-15 5.2,0 7.9,1.5 7.9,1.5 V 45 h 11.1 v 59.9 z"
   class="st0"
   id="XMLID_5_"
   inkscape:connector-curvature="0"
   style="fill:#ffffff;fill-opacity:1" />

	</g>

	<path
   d="m 221,60.3 c -8.1,0 -15.1,4.7 -19.1,11.8 0.2,-1.3 0.3,-2.7 0.3,-4.2 0,-20.3 -17.8,-19.8 -28.6,-19.8 h -12.7 v 60.2 h 12.7 v -17 c 7.8,0 19.6,-1.6 25.3,-10.6 -0.3,1.5 -0.4,3.1 -0.4,4.7 0,13.8 10.1,24.9 22.5,24.9 12.4,0 22.5,-11.2 22.5,-24.9 0,-14 -10.1,-25.1 -22.5,-25.1 z M 173.6,80.4 V 59.6 c 9.3,0 15.7,2 15.7,10 0,7.9 -6.1,10.8 -15.7,10.8 z M 221,98.2 c -5,0 -9.1,-5.8 -9.1,-13 0,-7.2 4.1,-13 9.1,-13 5,0 9.1,5.8 9.1,13 -0.1,7.2 -4.1,13 -9.1,13 z"
   class="st0"
   id="XMLID_8_"
   inkscape:connector-curvature="0"
   style="fill:#ffffff;fill-opacity:1" />

	<rect
   height="45.900002"
   width="12.6"
   class="st0"
   y="62.299999"
   x="244.5"
   id="XMLID_12_"
   style="fill:#ffffff;fill-opacity:1" />

	<path
   d="m 289.1,60.3 c -5.3,0 -10.8,3.6 -14.9,7 v -5 h -12.6 v 45.9 h 12.6 V 76.5 c 3.3,-2 14.9,-8.7 14.9,0.5 v 31.1 h 12.6 V 77 c 0,-8.7 -2.5,-16.7 -12.6,-16.7 z"
   class="st0"
   id="XMLID_13_"
   inkscape:connector-curvature="0"
   style="fill:#ffffff;fill-opacity:1" />

	<circle
   r="13.1"
   cy="43.299999"
   cx="250.8"
   class="st0"
   id="XMLID_14_"
   style="fill:#ffffff;fill-opacity:1" />

	<path
   d="m 334.8,96.6 c -9.1,1.2 -13.2,2.3 -13.2,-4 v -20 h 12.3 V 62.3 H 321.6 V 52.6 H 309 v 9.7 h -6.3 v 10.3 h 6.3 v 20 c 0,9.8 2.1,16.7 9.3,16.7 7.2,0 17.5,-1.2 17.5,-1.2 z"
   class="st0"
   id="XMLID_15_"
   inkscape:connector-curvature="0"
   style="fill:#ffffff;fill-opacity:1" />

	<g
   id="XMLID_36_"
   style="fill:#ffffff;fill-opacity:1">
		<path
   d="m 153.3,126 -1.9,4.6 h -1.9 l 6.2,-14.9 h 1.4 l 6.1,14.9 h -2 l -1.9,-4.6 z m 3.6,-1.5 c 0.9,0 1.1,0 1.9,0 -0.4,-0.7 -0.4,-0.9 -0.8,-1.8 l -0.5,-1.3 c -0.6,-1.6 -0.7,-1.8 -1.2,-3.2 h -0.1 c -0.5,1.4 -0.6,1.7 -1.2,3.2 l -0.5,1.3 c -0.4,0.9 -0.4,1 -0.8,1.7 0.8,0 1,0 1.9,0 h 1.3 z"
   class="st1"
   id="XMLID_91_"
   inkscape:connector-curvature="0"
   style="fill:#ffffff;fill-opacity:1" />

		<path
   d="m 166.9,123.1 c 0.9,-1.7 1.8,-2.6 2.7,-2.6 0.5,0 0.8,0.1 1.6,0.4 l -0.4,1.5 c -0.7,-0.2 -0.9,-0.3 -1.2,-0.3 -0.9,0 -1.6,0.6 -2.5,2 v 6.4 h -1.8 v -5.9 c 0,-2.5 -0.1,-3 -0.7,-3.6 l 1.5,-0.6 c 0.5,0.6 0.7,1.2 0.8,2.7 z"
   class="st1"
   id="XMLID_89_"
   inkscape:connector-curvature="0"
   style="fill:#ffffff;fill-opacity:1" />

		<path
   d="m 181.3,136.4 h -1.8 v -3.6 c 0,-1.5 0,-1.8 0.1,-3.2 h -0.1 c -0.9,0.8 -1.7,1.2 -2.8,1.2 -2.6,0 -4.4,-2 -4.4,-4.8 0,-3.2 2.1,-5.4 5.2,-5.4 1.2,0 2,0.2 3.8,0.7 z m -1.8,-12.5 c 0,-0.7 0,-0.8 0.1,-1.5 -0.7,-0.3 -1.3,-0.5 -2,-0.5 -2,0 -3.3,1.4 -3.3,3.6 0,2.2 1.2,3.7 3.1,3.7 0.9,0 1.4,-0.2 2.3,-1 -0.1,-0.6 -0.1,-0.7 -0.1,-1.4 v -2.9 z"
   class="st1"
   id="XMLID_86_"
   inkscape:connector-curvature="0"
   style="fill:#ffffff;fill-opacity:1" />

		<path
   d="m 192.7,127.5 c 0,1.1 0,1.1 0.1,1.4 0.1,0.4 0.4,0.6 0.9,0.6 0.1,0 0.4,0 0.6,-0.1 l -0.3,1.3 c -0.4,0.1 -0.5,0.1 -0.8,0.1 -1.2,0 -1.8,-0.5 -2,-1.5 v 0 c -1,1.1 -2,1.6 -3.3,1.6 -1.3,0 -2.4,-0.6 -2.9,-1.5 -0.3,-0.6 -0.4,-1.3 -0.4,-2.5 v -6.1 h 1.8 v 6 c 0,1.9 0.6,2.6 2,2.6 1,0 1.7,-0.4 2.5,-1.3 v -7.3 h 1.8 z"
   class="st1"
   id="XMLID_84_"
   inkscape:connector-curvature="0"
   style="fill:#ffffff;fill-opacity:1" />

		<path
   d="m 198.1,117.1 c 0,0.7 -0.5,1.2 -1.1,1.2 -0.6,0 -1.1,-0.5 -1.1,-1.2 0,-0.7 0.5,-1.2 1.1,-1.2 0.6,0 1.1,0.6 1.1,1.2 z m -0.2,13.5 H 196 v -9.9 h 1.8 v 9.9 z"
   class="st1"
   id="XMLID_81_"
   inkscape:connector-curvature="0"
   style="fill:#ffffff;fill-opacity:1" />

		<path
   d="M 206.3,122.1 H 204 c -0.2,0 -0.3,0 -0.5,-0.1 0.1,0.2 0.1,0.3 0.1,0.5 v 4.8 c 0,1.5 0.3,1.9 1.4,1.9 0.6,0 1,-0.1 1.8,-0.4 l 0.3,1.2 c -0.8,0.4 -1.6,0.6 -2.6,0.6 -1,0 -1.9,-0.4 -2.3,-1 -0.3,-0.5 -0.4,-1.1 -0.4,-2.7 v -4.5 c 0,-0.2 0,-0.3 0.1,-0.5 -0.2,0.1 -0.3,0.1 -0.5,0.1 h -1.6 v -1.1 c 2.5,-0.1 2.5,-0.2 2.9,-3 h 1.1 l -0.1,2.3 c 0,0.2 0,0.3 -0.1,0.5 0.2,-0.1 0.3,-0.1 0.5,-0.1 h 2.2 z"
   class="st1"
   id="XMLID_79_"
   inkscape:connector-curvature="0"
   style="fill:#ffffff;fill-opacity:1" />

		<path
   d="m 210,125.6 c -0.2,0 -0.2,0 -0.4,-0.1 0,2.4 1.2,3.8 3.3,3.8 1,0 2,-0.4 2.7,-1.1 l 0.9,1 c -1.1,1.2 -2.3,1.7 -4,1.7 -2.8,0 -4.8,-2.1 -4.8,-5.1 0,-3 2,-5.2 4.8,-5.2 2.4,0 3.9,1.6 3.9,4 l -0.8,1 z m 4.1,-1.2 c 0.4,0 0.4,0 0.7,0.1 -0.1,-1.6 -1.1,-2.6 -2.5,-2.6 -1.4,0 -2.4,0.9 -2.7,2.6 0.5,-0.1 0.6,-0.1 1.2,-0.1 z"
   class="st1"
   id="XMLID_76_"
   inkscape:connector-curvature="0"
   style="fill:#ffffff;fill-opacity:1" />

		<path
   d="m 225.3,122.9 c -0.9,-0.6 -1.5,-0.8 -2.2,-0.8 -1.8,0 -3,1.4 -3,3.4 0,2.3 1.3,3.8 3.3,3.8 0.8,0 1.4,-0.2 2.3,-0.7 l 0.7,1.2 c -1,0.8 -2.1,1.1 -3.4,1.1 -2.8,0 -4.8,-2.1 -4.8,-5 0,-3 2.2,-5.3 5,-5.3 1.1,0 2.1,0.3 3.1,1 z"
   class="st1"
   id="XMLID_74_"
   inkscape:connector-curvature="0"
   style="fill:#ffffff;fill-opacity:1" />

		<path
   d="m 233.4,122.1 h -2.2 c -0.2,0 -0.3,0 -0.5,-0.1 0.1,0.2 0.1,0.3 0.1,0.5 v 4.8 c 0,1.5 0.3,1.9 1.4,1.9 0.6,0 1,-0.1 1.8,-0.4 l 0.3,1.2 c -0.8,0.4 -1.6,0.6 -2.6,0.6 -1,0 -1.9,-0.4 -2.3,-1 -0.3,-0.5 -0.4,-1.1 -0.4,-2.7 v -4.5 c 0,-0.2 0,-0.3 0.1,-0.5 -0.2,0.1 -0.3,0.1 -0.5,0.1 H 227 v -1.1 c 2.5,-0.1 2.5,-0.2 2.9,-3 h 1.1 l -0.1,2.3 c 0,0.2 0,0.3 -0.1,0.5 0.2,-0.1 0.3,-0.1 0.5,-0.1 h 2.2 v 1.5 z"
   class="st1"
   id="XMLID_72_"
   inkscape:connector-curvature="0"
   style="fill:#ffffff;fill-opacity:1" />

		<path
   d="m 243.9,127.5 c 0,1.1 0,1.1 0.1,1.4 0.1,0.4 0.4,0.6 0.9,0.6 0.1,0 0.4,0 0.6,-0.1 l -0.3,1.3 c -0.4,0.1 -0.5,0.1 -0.8,0.1 -1.2,0 -1.8,-0.5 -2,-1.5 v 0 c -1,1.1 -2,1.6 -3.3,1.6 -1.3,0 -2.4,-0.6 -2.9,-1.5 -0.3,-0.6 -0.4,-1.3 -0.4,-2.5 v -6.1 h 1.8 v 6 c 0,1.9 0.6,2.6 2,2.6 1,0 1.7,-0.4 2.5,-1.3 v -7.3 h 1.8 z"
   class="st1"
   id="XMLID_70_"
   inkscape:connector-curvature="0"
   style="fill:#ffffff;fill-opacity:1" />

		<path
   d="m 249.1,123.1 c 0.9,-1.7 1.8,-2.6 2.7,-2.6 0.5,0 0.8,0.1 1.6,0.4 l -0.4,1.5 c -0.7,-0.2 -0.9,-0.3 -1.2,-0.3 -0.9,0 -1.6,0.6 -2.5,2 v 6.4 h -1.8 v -5.9 c 0,-2.5 -0.1,-3 -0.7,-3.6 l 1.5,-0.6 c 0.5,0.6 0.7,1.2 0.8,2.7 z"
   class="st1"
   id="XMLID_68_"
   inkscape:connector-curvature="0"
   style="fill:#ffffff;fill-opacity:1" />

		<path
   d="m 254.6,121.6 c 1.4,-0.8 2.4,-1 3.6,-1 1,0 2,0.4 2.5,1 0.5,0.5 0.7,1.3 0.7,2.7 v 3.2 c 0,1.1 0,1.1 0.1,1.4 0.1,0.4 0.4,0.6 0.9,0.6 0.1,0 0.4,0 0.6,-0.1 l -0.3,1.3 c -0.4,0.1 -0.6,0.1 -0.9,0.1 -1.1,0 -1.6,-0.4 -1.9,-1.3 -1.1,1 -1.9,1.3 -3,1.3 -1.7,0 -2.8,-1.1 -2.8,-2.8 0,-2.2 1.7,-3.3 5.6,-3.6 -0.1,-0.1 -0.1,-0.2 -0.1,-0.4 v -0.2 c 0,-1.2 -0.6,-1.8 -1.7,-1.8 -1,0 -1.7,0.3 -3.2,1.1 v -1.5 z m 4.9,4.9 c 0,-0.4 0,-0.5 0.1,-0.9 -2.8,0.4 -3.8,1.1 -3.8,2.5 0,0.9 0.6,1.5 1.6,1.5 0.7,0 1,-0.1 2.1,-0.8 z"
   class="st1"
   id="XMLID_65_"
   inkscape:connector-curvature="0"
   style="fill:#ffffff;fill-opacity:1" />

		<path
   d="m 277.9,115 v 12.4 c 0,1.1 0,1.1 0.1,1.4 0.1,0.4 0.4,0.6 0.8,0.6 0.2,0 0.4,0 0.6,-0.1 l -0.3,1.3 c -0.4,0.1 -0.5,0.1 -0.9,0.1 -1.1,0 -1.7,-0.4 -1.9,-1.3 -1,0.9 -1.8,1.3 -3.1,1.3 -2.6,0 -4.4,-2 -4.4,-4.9 0,-3 2.1,-5.3 4.8,-5.3 0.9,0 1.5,0.2 2.5,0.8 -0.1,-1 -0.1,-1.3 -0.1,-2.3 v -4 z m -1.8,9.5 c 0,-0.6 0,-0.8 0.1,-1.4 -0.8,-0.8 -1.5,-1.1 -2.4,-1.1 -1.7,0 -3,1.5 -3,3.7 0,2.2 1.2,3.6 3,3.6 0.9,0 1.4,-0.2 2.3,-1 -0.1,-0.6 -0.1,-0.7 -0.1,-1.4 v -2.4 z"
   class="st1"
   id="XMLID_62_"
   inkscape:connector-curvature="0"
   style="fill:#ffffff;fill-opacity:1" />

		<path
   d="m 282.8,125.6 c -0.2,0 -0.2,0 -0.4,-0.1 0,2.4 1.2,3.8 3.3,3.8 1,0 2,-0.4 2.7,-1.1 l 0.9,1 c -1.1,1.2 -2.3,1.7 -4,1.7 -2.8,0 -4.8,-2.1 -4.8,-5.1 0,-3 2,-5.2 4.8,-5.2 2.4,0 3.9,1.6 3.9,4 l -0.8,1 z m 4.1,-1.2 c 0.4,0 0.4,0 0.7,0.1 -0.1,-1.6 -1.1,-2.6 -2.5,-2.6 -1.4,0 -2.4,0.9 -2.7,2.6 0.5,-0.1 0.6,-0.1 1.2,-0.1 z"
   class="st1"
   id="XMLID_59_"
   inkscape:connector-curvature="0"
   style="fill:#ffffff;fill-opacity:1" />

		<path
   d="m 298.3,122.5 c 0.8,-1.3 2,-1.9 3.4,-1.9 2,0 3.3,1.4 3.3,3.5 v 6.6 h -1.8 v -5.9 c 0,-1.9 -0.6,-2.7 -2,-2.7 -1,0 -1.8,0.4 -2.8,1.6 v 7.1 h -1.8 v -5.9 c 0,-2.5 -0.1,-3 -0.7,-3.6 l 1.5,-0.6 c 0.5,0.2 0.7,0.8 0.9,1.8 z"
   class="st1"
   id="XMLID_57_"
   inkscape:connector-curvature="0"
   style="fill:#ffffff;fill-opacity:1" />

		<path
   d="m 309.6,125.6 c -0.2,0 -0.2,0 -0.4,-0.1 0,2.4 1.2,3.8 3.3,3.8 1,0 2,-0.4 2.7,-1.1 l 0.9,1 c -1.1,1.2 -2.3,1.7 -4,1.7 -2.8,0 -4.8,-2.1 -4.8,-5.1 0,-3 2,-5.2 4.8,-5.2 2.4,0 3.9,1.6 3.9,4 l -0.8,1 z m 4.2,-1.2 c 0.4,0 0.4,0 0.7,0.1 -0.1,-1.6 -1.1,-2.6 -2.5,-2.6 -1.4,0 -2.4,0.9 -2.7,2.6 0.5,-0.1 0.6,-0.1 1.2,-0.1 z"
   class="st1"
   id="XMLID_54_"
   inkscape:connector-curvature="0"
   style="fill:#ffffff;fill-opacity:1" />

		<path
   d="m 320.5,127.8 c -0.4,0.4 -0.5,0.6 -0.5,1 0,0.5 0.4,0.7 1.4,0.9 l 3,0.6 c 1.5,0.3 2.4,1.4 2.4,2.8 0,2.2 -2,3.8 -4.9,3.8 -2.6,0 -4.5,-1.3 -4.5,-3.2 0,-1.3 0.8,-2.2 2.6,-2.8 v -0.1 c -1.1,-0.4 -1.5,-0.8 -1.5,-1.5 0,-0.7 0.4,-1.2 1.3,-1.8 h 0.1 v 0 c -1.3,-0.6 -1.9,-1.7 -1.9,-3.2 0,-2.2 1.6,-3.7 4.1,-3.7 0.6,0 1,0.1 1.8,0.4 h 3.5 v 1.2 l -1.2,-0.1 c -0.6,0 -0.8,-0.1 -1.3,-0.2 v 0.1 c 1,0.9 1.3,1.5 1.3,2.6 0,2.1 -1.6,3.6 -3.9,3.6 -0.8,-0.3 -1.2,-0.3 -1.8,-0.4 z m 0.4,3.4 c -1.2,0.6 -1.7,1.3 -1.7,2.2 0,1.2 1.3,2.2 3.1,2.2 1.7,0 2.9,-0.8 2.9,-2 0,-1 -0.6,-1.6 -2.4,-1.9 z m -1.1,-7.1 c 0,1.6 0.8,2.6 2.2,2.6 1.4,0 2.2,-0.9 2.2,-2.4 0,-1.6 -0.9,-2.7 -2.3,-2.7 -1.3,0 -2.1,1 -2.1,2.5 z"
   class="st1"
   id="XMLID_50_"
   inkscape:connector-curvature="0"
   style="fill:#ffffff;fill-opacity:1" />

		<path
   d="m 338.6,125.7 c 0,3 -2.1,5.2 -5,5.2 -3,0 -5,-2.1 -5,-5.1 0,-3 2.1,-5.2 5.1,-5.2 2.8,-0.1 4.9,2.1 4.9,5.1 z m -8.1,-0.2 c 0,2.3 1.4,4 3.3,4 1.7,0 2.9,-1.4 2.9,-3.4 0,-2.3 -1.4,-4 -3.2,-4 -1.8,-0.1 -3,1.3 -3,3.4 z"
   class="st1"
   id="XMLID_47_"
   inkscape:connector-curvature="0"
   style="fill:#ffffff;fill-opacity:1" />

		<path
   d="m 347.6,122.9 c -0.9,-0.6 -1.5,-0.8 -2.2,-0.8 -1.8,0 -3,1.4 -3,3.4 0,2.3 1.3,3.8 3.3,3.8 0.8,0 1.4,-0.2 2.3,-0.7 l 0.7,1.2 c -1,0.8 -2.1,1.1 -3.4,1.1 -2.8,0 -4.8,-2.1 -4.8,-5 0,-3 2.2,-5.3 5,-5.3 1.1,0 2.1,0.3 3.1,1 z"
   class="st1"
   id="XMLID_45_"
   inkscape:connector-curvature="0"
   style="fill:#ffffff;fill-opacity:1" />

		<path
   d="m 352.5,117.1 c 0,0.7 -0.5,1.2 -1.1,1.2 -0.6,0 -1.1,-0.5 -1.1,-1.2 0,-0.7 0.5,-1.2 1.1,-1.2 0.6,0 1.1,0.6 1.1,1.2 z m -0.2,13.5 h -1.8 v -9.9 h 1.8 z"
   class="st1"
   id="XMLID_42_"
   inkscape:connector-curvature="0"
   style="fill:#ffffff;fill-opacity:1" />

		<path
   d="m 364.9,125.7 c 0,3 -2.1,5.2 -5,5.2 -3,0 -5,-2.1 -5,-5.1 0,-3 2.1,-5.2 5.1,-5.2 2.8,-0.1 4.9,2.1 4.9,5.1 z m -8.2,-0.2 c 0,2.3 1.4,4 3.3,4 1.7,0 2.9,-1.4 2.9,-3.4 0,-2.3 -1.4,-4 -3.2,-4 -1.8,-0.1 -3,1.3 -3,3.4 z"
   class="st1"
   id="XMLID_39_"
   inkscape:connector-curvature="0"
   style="fill:#ffffff;fill-opacity:1" />

		<path
   d="m 372.1,122.9 c -1,-0.7 -1.4,-0.8 -2.1,-0.8 -0.9,0 -1.5,0.5 -1.5,1.2 0,0.6 0.4,0.9 1.4,1.4 l 1.4,0.6 c 1.2,0.5 1.8,1.4 1.8,2.6 0,1.7 -1.5,3 -3.4,3 -1.4,0 -2.5,-0.5 -3.4,-1.5 l 0.9,-1.2 c 0.9,0.9 1.7,1.3 2.6,1.3 0.9,0 1.6,-0.6 1.6,-1.4 0,-0.6 -0.3,-0.9 -1.4,-1.4 -2.6,-1 -3.2,-1.7 -3.2,-3.2 0,-1.7 1.4,-3 3.1,-3 1,0 1.9,0.3 2.8,1 z"
   class="st1"
   id="XMLID_37_"
   inkscape:connector-curvature="0"
   style="fill:#ffffff;fill-opacity:1" />

	</g>

</g>
  </g>
  <style
     id="style3713"
     type="text/css">
	.st0{fill:#010002;}
	.st1{fill:#030104;}
</style>
</svg>
